PathFileType	4	(X/Y/Z)	Walk4.trc
DataRate	CameraRate	NumFrames	NumMarkers	Units	OrigDataRate	OrigDataStartFrame	OrigNumFrames
200.000000	200.000000	9	58	mm	200.000000	475	550
Frame#	Times		RBHD		C7		RASI		RACR1		RUA1		RElbow		RFA1		RWRU		RCAR		LFA1		RTH2		RTH3		RBack		LTH2		LElbowM		RLFC		RTB1		RTB3		LTH3		RTH1		RTH4		RMT1		RMT5		LElbow		RTB2		LTH4		LACR1		RTB4		LWRR		LWRU		RMMAL		CLAV		LASI		LPSI		LTB1		LBHD		RPSI		LLFC		T10		RWRR		LFHD		LTB3		LCAR		LTH1		LTB4		RFHD		LMT1		LCAL		RToe		LMMAL		RElbowM		LMT5		RLMAL		LLMAL		LTB2		LToe		LUA1		RCAL
			X1	Y1	Z1	X2	Y2	Z2	X3	Y3	Z3	X4	Y4	Z4	X5	Y5	Z5	X6	Y6	Z6	X7	Y7	Z7	X8	Y8	Z8	X9	Y9	Z9	X10	Y10	Z10	X11	Y11	Z11	X12	Y12	Z12	X13	Y13	Z13	X14	Y14	Z14	X15	Y15	Z15	X16	Y16	Z16	X17	Y17	Z17	X18	Y18	Z18	X19	Y19	Z19	X20	Y20	Z20	X21	Y21	Z21	X22	Y22	Z22	X23	Y23	Z23	X24	Y24	Z24	X25	Y25	Z25	X26	Y26	Z26	X27	Y27	Z27	X28	Y28	Z28	X29	Y29	Z29	X30	Y30	Z30	X31	Y31	Z31	X32	Y32	Z32	X33	Y33	Z33	X34	Y34	Z34	X35	Y35	Z35	X36	Y36	Z36	X37	Y37	Z37	X38	Y38	Z38	X39	Y39	Z39	X40	Y40	Z40	X41	Y41	Z41	X42	Y42	Z42	X43	Y43	Z43	X44	Y44	Z44	X45	Y45	Z45	X46	Y46	Z46	X47	Y47	Z47	X48	Y48	Z48	X49	Y49	Z49	X50	Y50	Z50	X51	Y51	Z51	X52	Y52	Z52	X53	Y53	Z53	X54	Y54	Z54	X55	Y55	Z55	X56	Y56	Z56	X57	Y57	Z57	X58	Y58	Z58

475	2.375	928.15	1552.3	426.94	899.45	1419.9	341.75	1004.3	929.57	456.03	949.4	1363.6	490.71	871.09	1178	555.97	802.61	1061.3	567.24	809.63	916.48	598.72	772.51	789.01	588.81	802.11	727.83	603.4	1020.2	995.7	7.6133	1095	673.71	470.89	1070	557.55	479.08	819.38	1323	418.79	999.32	615.64	166.52	868.55	1094.7	103.79	1106.7	462.13	462.93	1146.9	374.64	377.29	1140	184.08	376.18	921.86	531.68	143.55	996.31	728.87	511.46	1034.3	642.61	500.31	1235.3	38.428	335.51	1209.8	30.909	423.74	897.58	1104.6	26.696	1139.2	278.2	450.42	929.79	620.87	133.39	952.19	1419.7	168.38	1146.4	281.74	378.3	1097	913.74	54.413	1035.8	877.97	9.9159	1106.6	94.827	333.76	1036.3	1340.3	332.3	992.82	921.7	157.01	821.43	935.74	254.78	856.42	318.12	210.02	921.56	1559.6	287.43	819.61	940.65	360.5	884.87	422.96	155.31	808.92	1110.1	305.75	846.57	776.34	572.46	1104.3	1586.6	305.05	701.74	215.04	219.75	1119.7	867.33	5.3263	939.7	717.47	129.04	777.89	267.63	215.67	1108.9	1588.5	386.34	611.69	44.813	277.31	504.47	204.15	243.62	1285.6	39.664	355.26	597.25	176.29	280.23	793.9	1041.3	473.36	598.95	53.124	193.81	1086.5	78.523	422.41	562.69	191.47	195.5	756.15	294.2	152.58	647.3	23.734	261.04	924.52	1233	57.431	1035.2	31.19	382.23
476	2.38	934.56	1552.4	427.7	906.13	1420.5	342.73	1010.6	930.73	456.97	956.78	1364	491.19	879.79	1178.3	556.7	811.5	1061.3	568.42	819.11	916.63	599.6	782.58	788.94	589.85	813.21	728.32	604.86	1024.8	995.67	8.7381	1100.5	672.96	471.16	1074.6	556.92	478.12	826.7	1323.8	420.1	1009.7	616.11	166.65	874.96	1095.9	105.83	1110.4	461.88	462.5	1149.5	374.02	376.23	1141.2	183.6	375.29	933.63	530.76	144.23	1002.3	729.1	511.89	1039.2	642.74	499.86	1235.5	37.972	334.82	1210	31.115	423.58	903.01	1105.8	28.142	1141.7	277.7	449.45	939.97	620.31	134.08	958.53	1420.6	169.22	1148.4	281.16	377.38	1100.8	912.81	54.936	1039.1	877.77	10.513	1106.8	94.595	333.07	1043.1	1340.7	332.31	998.91	922.34	157.45	827.38	936.31	255.24	869.19	316.89	210.1	928.32	1560.4	288.36	826.18	941.14	361	898.19	421.71	156.04	815	1110.9	306.46	856.81	776.16	572.57	1111.2	1587.5	306.35	712.12	217.35	219.65	1122.8	866.08	6.0104	948.07	716.94	129.97	789.43	268.01	215.82	1115.5	1589	387.57	618.91	48.536	276.5	514.33	210.59	242.21	1286.2	37.666	353.72	606.32	181.46	280.8	802.31	1041.4	474.28	607.2	58.059	193.67	1086.9	78.636	421.21	572.82	196.83	195.09	768.14	295.38	152.91	653.14	23.803	258.63	931	1233.9	58.407	1035.3	31.248	381.98
477	2.385	941.06	1552.8	428.31	912.66	1421.3	343.51	1016.9	932.02	457.52	964.41	1364.6	491.63	888.24	1178.5	557.43	820.37	1061.4	569.69	828.66	916.39	600.49	792.84	788.59	590.68	823.57	728.43	605.94	1029.2	995.72	9.7515	1105.7	672.43	471.11	1079.1	556.46	476.98	833.64	1324.5	421.42	1020.1	616.61	166.92	881.41	1097	107.97	1114.3	461.73	461.93	1151.7	373.49	375.29	1142.1	183.14	374.38	945.27	529.94	144.94	1008.2	729.55	512.18	1044.4	642.71	499.54	1235.6	37.484	333.89	1210.1	31.158	423.17	908.43	1106.9	29.406	1144.2	277.23	448.48	949.68	619.72	135.02	964.82	1421.8	170.04	1150.2	280.62	376.41	1104.6	912.12	55.698	1042.4	877.57	11.319	1107.1	94.263	332.46	1049.4	1341.4	332.55	1004.9	922.77	157.97	833.14	936.94	255.6	882.05	316.05	210.87	935.12	1561.3	289.02	832.36	941.7	361.61	911.44	420.62	156.87	821.15	1111.6	307.38	866.88	775.95	573.1	1117.8	1588.1	307.8	722.68	219.93	220.13	1125.7	865.06	6.4361	956.32	716.15	131.26	800.96	268.84	216.58	1122	1589.3	388.86	627.49	52.121	275.45	524.87	217.12	240.8	1286.8	37.217	352.72	616.27	186.88	280.81	810.48	1041.5	475.66	615.79	63.302	193.63	1087.5	78.524	420.74	583.54	202.17	194.92	780.54	296.35	153.29	660.58	26.143	256.18	937.3	1235.1	59.096	1035.3	31.312	381.84
478	2.39	947.26	1553.2	429.02	919.19	1422.1	344.26	1023.4	933.17	458.07	971.89	1365.1	492.08	896.82	1178.7	558.26	829.06	1061.5	571	838.62	916.72	601.51	803.23	788.55	591.83	834.09	728.32	606.51	1033.6	995.82	10.643	1111.2	672.31	470.69	1083.2	556.24	475.85	840.46	1325.2	422.72	1030.2	617.38	167.09	887.52	1098.4	109.98	1118.1	461.65	461.39	1153.6	372.77	374.41	1142.9	182.67	373.6	956.7	529.41	145.57	1014.2	730.13	512.51	1049.2	642.74	498.93	1235.7	37.104	333.12	1210.2	31.098	422.75	913.84	1107.9	30.583	1146.4	276.68	447.65	959.63	619.16	135.71	970.94	1422.8	170.56	1151.6	280.03	375.62	1108.1	911	56.217	1045.6	877.52	12.103	1107.3	93.934	331.96	1055.8	1342	332.62	1010.6	923.3	158.48	839.37	937.53	256.34	894.58	316.05	212.3	941.77	1562.2	289.68	838.35	942.37	362.33	924.69	419.72	157.6	827.36	1112.8	308.05	877.27	776.31	573.57	1124.6	1589	309.03	733.72	222.63	221.2	1128.7	863.98	6.9319	964.57	715.67	132.53	813.09	270.26	217.65	1128.4	1589.9	390.18	637.56	55.895	274.23	536.14	223.42	239.97	1287.3	37.36	352.54	626.47	191.79	280.8	819.09	1041.5	476.83	625.2	68.382	193.28	1087.4	77.827	420.11	594.63	207.31	194.76	793.59	297.24	153.75	670.27	29.906	254.6	943.18	1236	60.084	1035.3	31.343	381.78
479	2.395	953.46	1553.6	429.45	925.64	1423	345	1029.5	934.31	458.61	979.39	1365.7	492.44	905.47	1179	559.05	837.98	1061.4	572.08	848.61	916.98	602.64	814.05	788.63	592.85	845.4	728.25	607.33	1037.8	995.88	11.492	1116.4	672.29	470.12	1087.2	556.05	475.06	847.52	1325.9	424	1040.3	618.66	167.24	893.18	1100	111.54	1121.7	461.55	460.85	1155.2	372.26	373.72	1143.8	182.22	373.11	968.14	529.13	146.24	1020.3	730.89	512.49	1054.3	642.97	498.7	1235.8	36.902	332.71	1210.3	30.971	422.48	919.09	1108.9	31.782	1148.5	276.32	446.96	969.57	618.78	136.21	977.1	1424	171.16	1152.9	279.45	374.91	1112	910.26	56.736	1048.7	877.78	12.867	1107.4	93.612	331.57	1062.1	1342.5	332.77	1016.2	923.85	158.82	845.44	938.16	257.27	907.17	316.65	214.06	948.56	1563.3	290.31	844.27	943.47	363.13	937.9	419.14	158.3	833.41	1113.6	308.95	888.05	776.74	573.92	1131.1	1589.9	310.3	745.05	225.44	222.43	1131.4	862.79	7.5961	972.44	715.73	133.67	825.42	272.09	218.98	1134.7	1590.3	391.49	648.53	60.154	272.83	547.55	228.82	240.27	1287.8	37.122	352.7	637.18	196.08	280.91	827.64	1041.4	478.15	635.47	73.401	192.54	1087.7	78.445	419.12	606.24	211.98	194.6	806.9	297.97	154.21	680.83	33.835	253.29	949.3	1236.9	60.832	1035.3	31.367	381.81
480	2.4	959.82	1554	429.82	932.07	1423.9	345.64	1036	935.34	458.91	986.72	1366.3	492.48	914.16	1179.3	559.69	847.02	1061.3	573.05	858.61	916.96	603.73	824.85	788.34	593.95	856.58	727.91	608.19	1042.2	995.99	12.343	1121.6	672.27	469.68	1091.3	556.05	474.77	854.42	1326.6	425.41	1050.3	619.84	167.42	898.61	1101.9	112.86	1125.2	461.45	460.53	1156.9	371.66	373.19	1144.6	181.78	372.64	979.54	529.04	146.74	1026.2	731.72	512.61	1059.7	643.72	498.98	1235.9	36.817	332.57	1210.4	30.891	422.36	924.09	1110.1	32.975	1150.5	275.88	446.51	979.4	619.05	136.72	983.1	1425	171.7	1154.2	279.01	374.36	1115.6	909.47	57.462	1051.6	877.56	13.475	1107.5	93.366	331.3	1068.6	1343.4	332.77	1021.7	924.59	159.17	851.1	938.91	258.15	919.85	317.67	215.8	955.37	1564.3	290.96	850.22	944.53	364	951.09	419.16	158.88	839.43	1114.6	309.62	898.7	775.59	573.51	1137.8	1590.7	311.51	756.77	228.48	223.38	1134.4	861.75	8.1655	980.27	716.02	134.25	837.15	274.1	220.41	1141.4	1590.9	392.58	659.49	63.936	272	559.36	233.45	240.37	1288.2	36.518	353.19	648.7	199.94	280.85	836.26	1041.7	479.53	646.3	77.669	190.94	1087.8	78.781	419.09	618.03	216.43	194.75	820.55	299.1	154.61	691.89	38	252.98	955.5	1237.9	61.508	1035.3	31.394	381.76
481	2.405	966.23	1554.7	430.18	938.38	1424.8	346.2	1042.3	936.48	459.38	993.99	1366.9	492.75	922.65	1179.7	560.36	855.89	1061.5	574.02	868.67	917.11	604.78	835.85	788.37	595.12	868.1	728.65	609.1	1046.1	996.01	13.215	1126.5	672.38	469.32	1095.7	556.59	474.92	861.16	1327.5	426.67	1060.2	621.75	167.65	903.65	1103.6	113.9	1128.3	461.28	460.27	1158.9	371.22	372.86	1145.4	181.39	372.27	990.78	529.58	147.06	1032.2	732.56	512.48	1064.8	644.27	499.7	1235.9	36.707	332.44	1210.5	30.872	422.21	929.13	1111.2	34.032	1152.4	275.52	446.11	988.8	618.96	137.45	988.95	1426.2	172.11	1155.6	278.54	374.09	1119	908.6	58.015	1054.5	877.37	13.852	1107.5	93.176	331.12	1074.8	1344	332.58	1027.2	925.21	159.29	856.93	939.67	259.09	932.7	319.1	217.16	962.09	1565.6	291.46	856.46	945.96	364.83	964.46	419.8	159.3	845.39	1115.7	310.46	909.58	775.15	572.85	1144.6	1591.5	312.56	768.85	231.29	224.08	1137.2	860.81	8.8246	988.28	716.29	134.48	849.72	276.19	221.5	1148	1591.4	393.59	670.81	67.377	271.11	571.33	237.7	240.97	1288.5	35.7	353.65	660.78	203.26	280.66	844.47	1041.9	480.75	657.34	81.962	190.37	1087.9	78.777	419.19	629.96	220.44	194.92	833.76	300.59	155.27	702.84	41.243	252.24	961.33	1238.9	62.086	1035.3	31.406	381.75
482	2.41	972.46	1555.3	430.81	944.64	1425.7	346.93	1048.4	937.48	459.67	1001.4	1367.8	493	931.41	1180.2	560.93	864.96	1061.9	575.35	879	917.33	605.69	847.02	788.24	596.18	879.93	728.79	609.86	1050.2	996.01	13.981	1131.3	672.44	468.96	1099.9	557.83	476.06	867.89	1328.3	427.78	1069.8	623.59	168.01	908.31	1105.4	114.81	1131.1	461.19	460.23	1160.7	370.83	372.84	1146.2	181.1	372.14	1001.8	530.45	147.35	1037.6	733.35	512.43	1069.5	644.86	500	1235.9	36.555	332.27	1210.7	30.903	422.12	934.25	1112.2	35.158	1153.9	275.2	445.95	998.25	619.84	137.68	994.92	1427.3	172.63	1157	278.2	373.98	1122	907.92	58.724	1057.4	877.5	14.4	1107.6	93.073	331.04	1080.9	1344.9	332.5	1032.5	926.07	159.53	862.72	940.74	259.86	945.92	320.78	217.99	968.85	1566.8	292.09	862.21	947.61	365.21	978.01	420.99	159.66	851.36	1116.8	311.21	920.73	775.71	572.62	1151.1	1592.5	313.62	781.35	234.02	224.43	1140.1	859.82	9.4666	996.37	716.68	134.87	862.54	278.37	222.12	1154.1	1591.8	394.74	682.64	70.339	270.14	584.01	241.32	241.59	1288.5	33.945	353.51	673.22	206.13	280.81	852.5	1042.1	481.79	669.22	85.902	189.51	1088.7	79.097	419.31	642.54	224.24	195.19	846.88	302.84	156.09	714.61	43.985	250.35	967.08	1239.9	62.664	1035.3	31.41	381.76
483	2.415	978.92	1556.3	431.28	950.96	1426.8	347.52	1054.8	938.4	459.92	1008.6	1368.6	492.97	940.03	1180.7	561.45	874.31	1062.2	576.79	889.41	917.64	606.64	858.42	788.37	597.37	891.76	728.97	610.78	1054.1	996.04	14.686	1136.2	672.66	468.4	1104	559.07	478.03	874.7	1329.4	428.93	1079.2	625.94	168.29	912.82	1106.9	115.75	1133.8	461.13	460.29	1162.7	370.5	372.9	1147	180.73	372.22	1012.7	531.65	147.51	1043	734.18	512.52	1074.4	645.34	499.95	1235.9	36.446	331.85	1210.7	30.934	422.15	939.09	1113.3	36.051	1155.2	274.91	446.01	1007.9	621.26	137.65	1000.8	1428.4	172.88	1158.4	277.77	374.05	1125	907.22	59.401	1060.4	877.63	15.287	1107.6	93.047	331	1087	1346	332.44	1037.8	926.97	159.57	868.48	941.74	260.71	958.88	322.37	218.51	975.42	1568.2	292.61	868.3	948.51	365.89	991.59	422.51	159.93	857.41	1118.1	312.15	931.76	776.71	572.72	1157.8	1593.4	314.54	794.31	236.57	224.58	1142.6	858.74	10.231	1004.6	717.13	135.69	875.76	280.4	222.48	1160.5	1592.5	395.69	694.9	73.079	269.15	596.78	244.49	242.1	1288.3	31.797	352.31	686.1	208.9	281.06	860.61	1042.2	482.95	681.89	89.112	188.59	1088.6	79.011	419.42	655.4	227.73	195.53	860.1	305.22	156.6	727.02	47.256	248.96	972.91	1240.9	63.133	1035.3	31.416	381.76
